/* XPM */
static char * focused_menu_xpm[] = {
"1 19 18 1",
" 	c None",
".	c #C9CED2",
"+	c #667079",
"@	c #7B8793",
"#	c #7A8692",
"$	c #798592",
"%	c #798490",
"&	c #78838F",
"*	c #77838E",
"=	c #75818D",
"-	c #747F8B",
";	c #737D89",
">	c #707C88",
",	c #6F7A86",
"'	c #6F7985",
")	c #6D7884",
"!	c #6C7682",
"~	c #6B7682",
".",
"+",
"@",
"#",
"$",
"%",
"&",
"*",
"=",
"-",
";",
">",
",",
"'",
")",
"!",
"~",
"+",
"."};
