/* XPM */
static char * window_bar_xpm[] = {
"1 19 16 1",
" 	c #6F6F6F",
".	c #FEFEFE",
"+	c #E5E5E5",
"@	c #E4E5E4",
"#	c #E5E5E4",
"$	c #E4E4E4",
"%	c #E4E3E3",
"&	c #E3E3E3",
"*	c #E2E2E2",
"=	c #E2E2E3",
"-	c #E1E1E1",
";	c #E0E1E0",
">	c #E0E0E0",
",	c #E0DFDF",
"'	c #DFDFDF",
")	c #DFDEDE",
" ",
".",
"+",
"+",
"@",
"#",
"$",
"%",
"&",
"*",
"=",
"-",
"-",
";",
">",
",",
"'",
"'",
")"};
