/* XPM */
static char * focused_taskbar_xpm[] = {
"1 14 14 1",
" 	c None",
".	c #7B8793",
"+	c #7A8692",
"@	c #798592",
"#	c #798490",
"$	c #78838F",
"%	c #77838E",
"&	c #76818D",
"*	c #74808C",
"=	c #747E8A",
"-	c #727D89",
";	c #707B88",
">	c #6F7A86",
",	c #2D2F32",
".",
".",
"+",
"@",
"#",
"$",
"%",
"&",
"*",
"=",
"-",
";",
">",
","};
