/* XPM */
static char * left_button_pressed_alt_xpm[] = {
"16 19 79 1",
" 	c None",
".	c #FFFFFF",
"+	c #E2E2E2",
"@	c #E1E1E1",
"#	c #C8C8C8",
"$	c #ADADAD",
"%	c #9C9C9C",
"&	c #9E9E9E",
"*	c #E0E1E0",
"=	c #BEBEBE",
"-	c #A2A2A2",
";	c #A3A3A3",
">	c #E0DFE0",
",	c #CDCDCD",
"'	c #AAAAAA",
")	c #A9A9A9",
"!	c #758DB4",
"~	c #7E98C5",
"{	c #7A95C4",
"]	c #8296B7",
"^	c #DFDFDF",
"/	c #BDBDBD",
"(	c #B0B0B0",
"_	c #6B7E9D",
":	c #5075B5",
"<	c #8DA6CF",
"[	c #849FCB",
"}	c #4A6FAD",
"|	c #808FA8",
"1	c #B1B1B1",
"2	c #DEDEDE",
"3	c #B9BAB9",
"4	c #B3B3B3",
"5	c #496698",
"6	c #5176B5",
"7	c #5B7FBA",
"8	c #4A71B2",
"9	c #5A7199",
"0	c #B7B7B7",
"a	c #B9B9BA",
"b	c #C0C0C0",
"c	c #B9B8B9",
"d	c #4E6EA3",
"e	c #7391C3",
"f	c #6283BC",
"g	c #576F99",
"h	c #DCDDDC",
"i	c #CBCBCB",
"j	c #C4C3C4",
"k	c #7C89A0",
"l	c #6F8EC2",
"m	c #87A0CC",
"n	c #7D99C8",
"o	c #6585BD",
"p	c #939EAF",
"q	c #C4C4C4",
"r	c #CCCBCC",
"s	c #DCDCDC",
"t	c #CACACA",
"u	c #C3C4C6",
"v	c #8A97AE",
"w	c #708DBD",
"x	c #728DBA",
"y	c #95A0B3",
"z	c #C7C7C9",
"A	c #DBDADB",
"B	c #D1D1D1",
"C	c #E1E0E0",
"D	c #F5F5F5",
"E	c #F4F4F4",
"F	c #DDDDDD",
"G	c #D1D2D1",
"H	c #DADAD9",
"I	c #D8D8D8",
"J	c #D9D9D8",
"K	c #D7D7D7",
"L	c #D7D7D6",
"M	c #D6D6D6",
"N	c #D5D5D5",
"................",
"++++++++++++++++",
"++++++++++++++++",
"@@@#$%&$#@@@@@@@",
"**=-;;;-;=******",
">,')!~{]'',>>>>>",
"^/(_:<[}|1/^^^^^",
"2345677890a22222",
"2bcde7ffg=b22222",
"hijklmnopqrhhhhh",
"sstuvwxyztssssss",
"AAABCDEFGAAAAAAA",
"HHHHIIIIHHHHHHHH",
"JJJJJJJJJJJJJJJJ",
"IIIIIIIIIIIIIIII",
"KKKKKKKKKKKKKKKK",
"LLLLLLLLLLLLLLLL",
"MMMMMMMMMMMMMMMM",
"NNNNNNNNNNNNNNNN"};
