/* XPM */
static char * left_button_alt_xpm[] = {
"16 19 79 1",
" 	c None",
".	c #FFFFFF",
"+	c #E2E2E2",
"@	c #E1E1E1",
"#	c #C8C8C8",
"$	c #ADADAD",
"%	c #9C9C9C",
"&	c #9E9E9E",
"*	c #E0E1E0",
"=	c #BEBEBE",
"-	c #A2A2A2",
";	c #A3A3A3",
">	c #E0DFE0",
",	c #CDCDCD",
"'	c #AAAAAA",
")	c #A9A9A9",
"!	c #8CA3C8",
"~	c #9AB0D1",
"{	c #97ADD0",
"]	c #94A9CA",
"^	c #DFDFDF",
"/	c #BDBDBD",
"(	c #B0B0B0",
"_	c #7994BD",
":	c #7795C5",
"<	c #A8BBDA",
"[	c #9FB4D6",
"}	c #6F8EC1",
"|	c #8BA1C3",
"1	c #B1B1B1",
"2	c #DEDEDE",
"3	c #B9B9B9",
"4	c #B3B3B3",
"5	c #6183BA",
"6	c #7895C5",
"7	c #7F9BC8",
"8	c #7392C3",
"9	c #6C8BBC",
"0	c #B7B7B7",
"a	c #C0C0C0",
"b	c #B8B8B8",
"c	c #6C8CBE",
"d	c #93ABD1",
"e	c #819DC9",
"f	c #85A0CB",
"g	c #6A8ABC",
"h	c #DCDDDC",
"i	c #CBCBCB",
"j	c #C3C3C3",
"k	c #899DBD",
"l	c #8FA8CF",
"m	c #A3B7D7",
"n	c #9BB1D4",
"o	c #88A2CB",
"p	c #9DACC4",
"q	c #C4C4C4",
"r	c #CCCBCB",
"s	c #DCDCDC",
"t	c #CACACA",
"u	c #C3C3C5",
"v	c #94A7C4",
"w	c #8DA4C8",
"x	c #8DA3C7",
"y	c #9EAEC7",
"z	c #C8C8C9",
"A	c #DBDADB",
"B	c #D1D1D1",
"C	c #E1E0E0",
"D	c #F5F5F5",
"E	c #F4F4F4",
"F	c #DDDDDD",
"G	c #D1D2D1",
"H	c #DADAD9",
"I	c #D8D8D8",
"J	c #D9D9D8",
"K	c #D7D7D7",
"L	c #D7D7D6",
"M	c #D6D6D6",
"N	c #D5D5D5",
"................",
"++++++++++++++++",
"++++++++++++++++",
"@@@#$%&$#@@@@@@@",
"**=-;;;-;=******",
">,')!~{]'',>>>>>",
"^/(_:<[}|1/^^^^^",
"2345677890322222",
"2abcdeffg=a22222",
"hijklmnopqrhhhhh",
"sstuvwxyztssssss",
"AAABCDEFGAAAAAAA",
"HHHHIIIIHHHHHHHH",
"JJJJJJJJJJJJJJJJ",
"IIIIIIIIIIIIIIII",
"KKKKKKKKKKKKKKKK",
"LLLLLLLLLLLLLLLL",
"MMMMMMMMMMMMMMMM",
"NNNNNNNNNNNNNNNN"};
