/* XPM */
static char * taskbar_xpm[] = {
"1 14 14 1",
" 	c #EEEEF0",
".	c #DAD9DF",
"+	c #D7D6DC",
"@	c #D4D3D8",
"#	c #CFCFD4",
"$	c #CBCACF",
"%	c #C6C5CA",
"&	c #C0C0C5",
"*	c #BBBBBF",
"=	c #B5B5BA",
"-	c #B0B1B5",
";	c #ACADB0",
">	c #A8AAAD",
",	c #2D2F32",
" ",
".",
"+",
"@",
"#",
"$",
"%",
"&",
"*",
"=",
"-",
";",
">",
","};
