/* XPM */
static char *close_focused[] = {
/* columns rows colors chars-per-pixel */
"19 18 26 1 ",
"  c #9D9D9D",
". c gray64",
"X c gray66",
"o c #ACACAC",
"O c #B2B2B2",
"+ c #B4B4B4",
"@ c #B6B6B6",
"# c gray72",
"$ c #BBBBBB",
"% c gray",
"& c gray75",
"* c #C0C0C0",
"= c #C3C3C3",
"- c gray80",
"; c #CDCDCD",
": c #DFDEDE",
"> c #DFDFDF",
", c #E0DFDF",
"< c gray88",
"1 c #E0E1E0",
"2 c #E2E2E3",
"3 c gray89",
"4 c #E4E3E3",
"5 c #E4E5E4",
"6 c gray90",
"7 c #FEFEFE",
/* pixels */
"7777777777777777777",
"6666666666666666666",
"6666666666666666666",
"5566555555555555566",
"5565555556565555655",
"353645@6545#4664643",
"44444# o44o @444343",
"433344O.O+.O4444333",
"33>3335#XX@33<33333",
"3333335$oo%4333<>3>",
">>>3>>&+**O*>>>3>33",
">33>3-#*33=#-3>33>3",
">3>:<<-:>>>-33>>,,,",
">:11<,<5>3>3>>>3,,,",
">>1<,,,,<<,,,>>>>,>",
">><<>>>>>>>>>>>>>>>",
">>>>>>>>>>>>>>>>>>>",
">>>>>>>>:::::::::::"
};
