/* XPM */
static char *close_unfocused[] = {
/* columns rows colors chars-per-pixel */
"19 18 24 1 ",
"  c #C2C1C1",
". c gray77",
"X c #C6C6C6",
"o c gray79",
"O c #CBCACA",
"+ c gray80",
"@ c #CECECE",
"# c #CFCECE",
"$ c #D0D0D0",
"% c #D2D2D2",
"& c LightGray",
"* c gray84",
"= c #D7D7D7",
"- c #DFDEDE",
"; c #DFDFDF",
": c #E0DFDF",
"> c gray88",
", c #E2E2E3",
"< c gray89",
"1 c #E4E3E3",
"2 c #E4E5E4",
"3 c #E5E5E4",
"4 c gray90",
"5 c #FEFEFE",
/* pixels */
"5555555555555555555",
"4444444444444444444",
"4444444444444444444",
"2244222222222222244",
"2242224422442222222",
"<2<412+4224+22414<<",
"11111# o11O +111<<<",
"1<<<11+.O#.O4111<<<",
"<,<<<><#XXO2<:<<<<>",
",><,<<<@oo%<<<<<><<",
">>>>>>@@%%o%>>-<<>;",
"><<>>=#%1>&#*,>->-2",
">>>><>*>>><=<>>>---",
">>>>>->>>->>>->>-;<",
">>>>->>->>>->>>>;;;",
";>>>;>-;>-->-->-;;;",
";;;;;;;;;;;;;;;;;;;",
";;;;;;-;-----------"
};
