/* XPM */
static char *maximize_focused[] = {
/* columns rows colors chars-per-pixel */
"19 18 25 1 ",
"  c gray59",
". c #A0A0A0",
"X c #A9A9A9",
"o c gray67",
"O c #B2B2B2",
"+ c #B4B4B4",
"@ c #B6B6B6",
"# c #BBBBBB",
"$ c gray74",
"% c gray",
"& c #C6C6C6",
"* c #CBCBCB",
"= c #CDCDCD",
"- c gray83",
"; c gray86",
": c #DFDEDE",
"> c #DFDFDF",
", c #E0DFDF",
"< c gray88",
"1 c #E2E2E3",
"2 c gray89",
"3 c #E4E3E3",
"4 c #E4E5E4",
"5 c gray90",
"6 c #FEFEFE",
/* pixels */
"6666666666666666666",
"5555555555555555555",
"5555555555555555555",
"4455444444444444444",
"445444544*    44554",
"2425342535=...34334",
"3333333333@XXX33222",
"322233323&O%-O33222",
"2222222322*2>;22222",
">2>2=22@222222>222<",
"2>2>.-+.#>2>2>2><<2",
">225XXX%>2>2>2>22<,",
"<<<<O@+->2>2><<<,,,",
"><<<%%%%>>><><<<,,,",
">><<,,>>>><<>><<,,,",
">>><>>>>>>>>>>><>>>",
">>>>>>>>>>>>>>>>>>>",
">>>>>>>>:>:::::::::"
};
