/* XPM */
static char * maximize_unfocused_xpm[] = {
"19 18 33 1",
" 	c None",
".	c #FEFEFE",
"+	c #E5E5E5",
"@	c #E4E5E4",
"#	c #E5E5E4",
"$	c #DEDEDE",
"%	c #BDBDBD",
"&	c #E4E4E4",
"*	c #DFDFDF",
"=	c #C3C3C3",
"-	c #E4E3E3",
";	c #D0D0D0",
">	c #C9C9C9",
",	c #CACACA",
"'	c #E3E3E3",
")	c #DBDBDB",
"!	c #CECECE",
"~	c #D6D6D6",
"{	c #E2E2E2",
"]	c #E8E8E8",
"^	c #E2E2E3",
"/	c #E1E1E1",
"(	c #D1D1D1",
"_	c #C4C4C4",
":	c #CFCFCF",
"<	c #C5C5C5",
"[	c #D3D3D3",
"}	c #D4D4D4",
"|	c #E0E1E0",
"1	c #E0E0E0",
"2	c #D5D5D5",
"3	c #E0DFDF",
"4	c #DFDEDE",
"...................",
"+++++++++++++++++++",
"+++++++++++++++++++",
"@@@@@@@@@@@@@@@@@@@",
"#########$%%%%#####",
"&&&&&&&&&&*===&&&&&",
"----------;>,>-----",
"''''''''')!~'!'''''",
"{{{{{{{{{{${{]{{{{{",
"^^^^/^^(^^^^^^^^^^^",
"////_{:<[//////////",
"////,,,}///////////",
"||||;;;+|||||||||||",
"11112222*1111111111",
"3333333333333333333",
"*******************",
"*******************",
"4444444444444444444"};
