/* XPM */
static char * taskbar_xpm[] = {
"4 24 8 1",
" 	c #141318",
".	c #131217",
"+	c #242328",
"@	c #232227",
"#	c #121116",
"$	c #434345",
"%	c #4A4A4C",
"&	c #434244",
" .+.",
". .+",
"@.#.",
" +..",
"..@.",
"...@",
"+ ..",
" @.#",
" .@#",
". .+",
"@...",
" +..",
"..@.",
"...+",
"+ ..",
" @.#",
" .+#",
". .+",
"@.#.",
" +..",
"..@.",
"...+",
"+ ..",
"$%$&"};
