/* XPM */
static char * bullet_xpm[] = {
"5 5 2 1",
" 	c None",
".	c #4C4C4C",
" .   ",
" ..  ",
" ... ",
" ..  ",
" .   "};
