/* XPM */
static char *close_pressed[] = {
/* columns rows colors chars-per-pixel */
"19 18 29 1 ",
"  c #A2A2A2",
". c #A4A4A4",
"X c #A7A7A7",
"o c gray67",
"O c #ACACAC",
"+ c #AEAEAE",
"@ c #AFAFAF",
"# c #B4B4B4",
"$ c gray72",
"% c #BCBCBC",
"& c gray76",
"* c gray78",
"= c #C8C8C8",
"- c gray79",
"; c #D2D2D2",
": c gray83",
"> c #D5D5D5",
", c #D8D8D8",
"< c gray86",
"1 c gainsboro",
"2 c #DDDDDD",
"3 c #E0DFDF",
"4 c gray88",
"5 c gray89",
"6 c #E4E3E3",
"7 c #E4E5E4",
"8 c gray90",
"9 c gray91",
"0 c #FEFEFE",
/* pixels */
"0000000000000000000",
"8888888888888888598",
"88&+OOOOOOOooo+&958",
"8&%*****=******%&58",
"8+;<21111222221;+85",
"5+211>O>12>o:211+56",
"5o221+ .><X +122o55",
"5O2124#XooX#2111o55",
"5+2<228$oo#8222<O55",
"5o2222<$#+%<2222o55",
"3o222>##%%##<<<2o45",
"5o222%$%68&$$222o54",
"2o22<5-5225-8222+44",
"5+<222852229222<+24",
"2&*<<22<2222<<<*&53",
"52*+o+o+o+oo+o+*233",
"2232533232533232522",
"3332223332223332323"
};
