/* XPM */
static char *maximize_pressed[] = {
/* columns rows colors chars-per-pixel */
"19 18 29 1 ",
"  c gray63",
". c #ACACAC",
"X c gray68",
"o c gray70",
"O c #B6B6B6",
"+ c #B9B9B9",
"@ c #BCBCBC",
"# c #C1C1C1",
"$ c #C3C3C3",
"% c gray77",
"& c #CBCBCB",
"* c #CECECE",
"= c gray82",
"- c gray83",
"; c gray86",
": c #DDDDDD",
"> c #DFDFDF",
", c #E0DFDF",
"< c gray88",
"1 c gray89",
"2 c #E4E3E3",
"3 c #E4E4E4",
"4 c #E4E5E4",
"5 c gray90",
"6 c gray92",
"7 c #ECECEC",
"8 c gray94",
"9 c #F4F4F4",
"0 c #FEFEFE",
/* pixels */
"0000000000000000000",
"5555555555555555555",
"55=$$@$%$$$$$$$=552",
"5==:::::::;::::==33",
"3$5677777$    71$13",
"1$77777878*X..77$53",
"1$67777775+ooo77@53",
"1$6677777%+$-@77$11",
"3$77777787*78:77$2>",
"1$77&77+27977877$23",
"1@77X&OX@7777777$:1",
"1$77OoO$77787778$:1",
":$66@@@-77777777$;1",
"1$67%%%$;7777777$1:",
":=-789998777777;=,,",
":3-$$$$@$$@$$$$-:1:",
"1:<,::,,,,::,,,,:1,",
":::<2:,::,2:,::,::,"
};
