/* XPM */
static char * taskbar_nonrepeat_xpm[] = {
"1 24 5 1",
" 	c #242328",
".	c #131217",
"+	c #121116",
"@	c #232227",
"#	c #434345",
" ",
".",
"+",
".",
"@",
".",
".",
".",
"@",
".",
".",
".",
"@",
".",
".",
".",
" ",
".",
"+",
".",
"@",
".",
".",
"#"};
