/* XPM */
static char * title_xpm[] = {
"1 19 11 1",
" 	c None",
".	c #FFFFFF",
"+	c #E2E2E2",
"@	c #E1E1E1",
"#	c #E0E0E0",
"$	c #DFDFDF",
"%	c #D6D6D6",
"&	c #D1D1D1",
"*	c #D5D5D5",
"=	c #D9D8D8",
"-	c #D7D7D7",
".",
"+",
"+",
"@",
"@",
"@",
"@",
"#",
"$",
"$",
"%",
"%",
"%",
"&",
"*",
"=",
"-",
"%",
"*"};
